<svg xmlns="http://www.w3.org/2000/svg" 
version="1.1" 
xmlns:xlink="http://www.w3.org/1999/xlink" 
xmlns:svgjs="http://svgjs.dev/svgjs"
width="1000" 
height="1125" 
viewBox="0 0 1000 1125">
<g transform="matrix(1,0,0,1,1.7053025658242404e-13,0)">
<svg viewBox="0 0 320 360" data-background-color="#ffbe79" 
preserveAspectRatio="xMidYMid meet" height="1125" width="1000" 
xmlns="http://www.w3.org/2000/svg" 
xmlns:xlink="http://www.w3.org/1999/xlink">
<g id="tight-bounds" transform="matrix(1,0,0,1,0,0)">
<svg viewBox="0 0 320 360" height="360" width="320">
<g><svg></svg></g><g>
<svg viewBox="0 0 320 360" 
height="360" width="320"><g>
<path xmlns="http://www.w3.org/2000/svg" 
d="M20.961 227.22l3.726 4.658-1.863-6.056c-0.466-2.795-3.726 
0.466-1.863 1.398M25.153 224.425c1.397 2.329 2.795 4.658 
2.795 6.987 0 3.261 2.795 4.658 5.123 
5.589-3.261-3.726-5.124-13.974-7.918-12.576M204.017 
26.929c7.918 0 15.371-0.932 23.756 0.931 20.495 
5.124 37.729 15.371 49.374 29.811l32.606 52.169c1.397 
13.042 4.192 27.482 3.726 43.319 3.261 0 2.795-4.658 
6.521-5.59-3.726 9.316-5.59 20.961-6.521 34.469-2.329-7.453 
0-18.632 0.466-24.687-3.261 5.124-5.124 1.397-5.124-0.932 
0.466-3.726-1.397-3.261-2.795-4.658-5.124-4.658-8.384-9.782-12.11-17.7 
2.329-6.055 2.795-14.905-4.658-19.563-2.329-1.397-5.124-3.726-6.521-7.453-1.863-5.124-5.124-11.179-4.193-19.097 0.466-2.329-6.987 5.124-11.179 1.863-18.166-12.576-36.332-27.016-58.224-39.127-11.645 0-20.029-4.192-24.221-9.316-3.726-4.658-0.932-10.713 4.658-11.179 3.261 0 6.987-0.932 9.782 0.932 0.466-1.863 2.329-4.192 4.657-4.192M157.904 16.215l0.932 0.466c4.658 0.932 6.987 7.453 12.11 5.124 0 3.261 0.466 6.521-0.466 8.85-1.397 3.726-5.59 3.726-8.85 3.726-31.208-1.863-49.374 11.179-68.471 22.358-5.124 3.261-10.713 5.59-14.906 9.782-20.029 18.632-41.921 35.866-47.045 70.335l-4.192 38.195c-0.466 4.192-5.124 8.384-4.192 13.508l3.26 22.824c-3.261-3.261-5.124 0.932-4.192 2.795 0.466 1.397 2.329 6.055 5.124 1.863 3.726 6.987 7.453 20.495 12.576 26.55 15.837 18.632 36.332 35.4 53.101 52.169 4.192-0.932 7.453-0.932 8.384-3.727 1.397 2.795-1.397 5.59-3.726 6.056 7.453 4.658 15.837 8.85 27.016 9.781 14.44 0.932 27.948 3.261 40.524 6.522 6.521-1.863 13.042-2.795 20.029-3.261 2.329 0 3.726-3.726 6.521-4.658l0.466-4.658c2.795 4.192 2.329-1.397 0.466-4.192 3.261 2.795 4.192 5.124 5.589 6.987 0-1.397 3.726-6.521 3.727-0.466l0.931-6.055c1.397-0.932 1.863 5.124 3.261 0.931 1.397-4.192 4.192-0.932 6.987-2.329-0.932 1.863-0.466 5.59 2.794 3.261l3.727-3.261c2.329 5.59 6.055 3.261 7.918 2.329 20.495-13.042 40.99-28.413 60.553-43.784l-0.466 6.055 2.329-7.453c2.329 2.329 4.192 0.466 5.124-0.931 2.795-4.658 6.521-9.316 12.577-13.508-7.453 20.029-16.303 35.866-27.482 48.908l-4.658 5.59c0 3.261-0.932 7.453-4.658 7.918-1.863 0.466-5.59-0.932-8.384 1.863-1.397 1.863 3.261 5.59-0.466 2.795-3.261-2.329-6.521 0-10.248 0.932-2.795 0.932 1.863 3.726 2.795 5.589 0.932 1.863 1.863 3.726 1.398 6.056l-5.124-5.59c-6.055 3.261-9.782 9.316-14.906 13.974-2.329 1.863-1.397 5.124-1.397 7.918-3.261 0-6.987-0.932-8.85 0.932-1.397 1.863-0.932 4.658-0.932 7.453-4.658-0.466-5.124-7.453-9.315-6.056-4.192 0.932-8.85 1.397-12.577 3.727 2.795 5.59-4.658 2.329-3.726 3.26-6.987-4.192-13.042-7.453-20.495-4.658-15.837-5.124-35.4-2.795-49.84-0.931 0-2.329 0.466-4.658-0.466-5.124-0.932 2.329-3.726 1.397-3.26 1.397-8.85-6.055-17.7-9.782-27.016-14.905-8.384 0.932-16.303-3.261-18.632-5.59-6.521-6.055-13.974-2.795-20.029-4.192-13.042-3.261-17.7-16.769-19.098-26.084-0.932-4.658-4.658-6.521-6.055-6.056-6.055-19.563-15.371-37.263-22.824-55.429-1.863-4.658-1.397-9.316-1.397-14.44 2.329 0.932 4.658 0.466 4.192-2.794-2.329-15.371-7.918-27.016-13.974-38.195 3.261-15.837 3.726-34.469 11.179-48.443 6.521-12.576 18.632-19.098 27.016-29.811 2.795-3.726 2.795-8.85 5.59-12.11 9.316-9.316 18.632-19.098 28.879-27.482 4.658-3.726 10.247 0 17.234-1.397 2.329-8.384 11.645-15.837 20.495-13.508 3.726 0.932 11.179-8.85 13.508-9.782 3.726-1.397 1.863 3.726 1.863 6.987 8.85-6.987 20.961-10.713 32.14-14.906" fill="#ffffff" fill-rule="nonzero" stroke="none" stroke-width="1" stroke-linecap="butt" stroke-linejoin="miter" stroke-miterlimit="10" stroke-dasharray="" stroke-dashoffset="0" font-family="none" font-weight="none" font-size="none" text-anchor="none" style="mix-blend-mode: normal" data-fill-palette-color="tertiary"></path></g><g transform="matrix(1,0,0,1,64,135.80787911494872)"><svg viewBox="0 0 192 88.38424177010255" height="88.38424177010255" width="192"><g><svg viewBox="0 0 192 88.38424177010255" height="88.38424177010255" width="192"><g><svg viewBox="0 0 192 88.38424177010255" height="88.38424177010255" width="192"><g><svg viewBox="0 0 192 88.38424177010255" height="88.38424177010255" width="192"><g id="textblocktransform"><svg viewBox="0 0 192 88.38424177010255" height="88.38424177010255" width="192" id="textblock"><g><svg viewBox="0 0 192 88.38424177010255" height="88.38424177010255" width="192"><g transform="matrix(1,0,0,1,0,0)"><svg width="192" viewBox="1.5499999523162842 -42.400001525878906 92.63999938964844 42.650001525878906" height="88.38424177010255" data-palette-color="#374151"><path d="M37.75-9.1Q38.5-9.4 39-9.4L39-9.4Q39.8-9.4 40.2-8.8 40.6-8.2 40.6-7.25L40.6-7.25Q40.6-5.75 39.88-4.7 39.15-3.65 37.4-2.8L37.4-2.8Q34.45-1.4 29.75-0.58 25.05 0.25 20.5 0.25L20.5 0.25Q14.2 0.25 9.95-1.18 5.7-2.6 3.63-5.1 1.55-7.6 1.55-10.75L1.55-10.75Q1.55-15.05 4.33-18.07 7.1-21.1 12.5-22.45L12.5-22.45Q9.55-23.3 7.98-25.45 6.4-27.6 6.4-30.25L6.4-30.25Q6.4-33.85 8.68-36.63 10.95-39.4 14.8-40.9 18.65-42.4 23.25-42.4L23.25-42.4Q29.45-42.4 32.55-39.73 35.65-37.05 35.65-32.8L35.65-32.8Q35.65-29.85 34.58-28.03 33.5-26.2 31.5-26.2L31.5-26.2Q30.1-26.2 29.3-26.83 28.5-27.45 28.5-28.7L28.5-28.7Q28.5-29.55 28.75-30.55L28.75-30.55Q29-32.2 29-32.8L29-32.8Q29-34.6 27.65-35.73 26.3-36.85 23.15-36.85L23.15-36.85Q18.9-36.85 16.35-35.05 13.8-33.25 13.8-30.2L13.8-30.2Q13.8-27.85 15.73-26.33 17.65-24.8 22-24.65L22-24.65Q23.1-24.6 23.55-24.15 24-23.7 24-22.65L24-22.65Q24-19.35 21-19.3L21-19.3Q16.85-19.2 14.13-18.15 11.4-17.1 10.18-15.48 8.95-13.85 8.95-12L8.95-12Q8.95-8.9 11.85-7.33 14.75-5.75 21.05-5.75L21.05-5.75Q25.2-5.75 29.83-6.73 34.45-7.7 37.75-9.1L37.75-9.1ZM40.25 0.25Q38.35 0.25 37.57-1.75 36.8-3.75 36.8-8.15L36.8-8.15Q36.8-14.65 38.65-20.5L38.65-20.5Q39.1-21.95 40.12-22.63 41.15-23.3 43-23.3L43-23.3Q44-23.3 44.4-23.05 44.8-22.8 44.8-22.1L44.8-22.1Q44.8-21.3 44.05-18.5L44.05-18.5Q43.55-16.5 43.25-15 42.95-13.5 42.75-11.3L42.75-11.3Q44.4-15.6 46.45-18.3 48.5-21 50.47-22.15 52.45-23.3 54.1-23.3L54.1-23.3Q57.35-23.3 57.35-20.05L57.35-20.05Q57.35-19.4 56.9-16.9L56.9-16.9Q56.5-14.9 56.5-14.4L56.5-14.4Q56.5-12.65 57.75-12.65L57.75-12.65Q59.15-12.65 61.35-14.85L61.35-14.85Q62-15.5 62.7-15.5L62.7-15.5Q63.35-15.5 63.72-14.93 64.1-14.35 64.1-13.4L64.1-13.4Q64.1-11.55 63.1-10.5L63.1-10.5Q61.7-9.05 59.82-8.03 57.95-7 55.85-7L55.85-7Q53.2-7 51.82-8.35 50.45-9.7 50.45-12L50.45-12Q50.45-12.75 50.6-13.5L50.6-13.5Q50.7-14.5 50.7-14.85L50.7-14.85Q50.7-15.65 50.15-15.65L50.15-15.65Q49.4-15.65 48.17-13.98 46.95-12.3 45.75-9.55 44.55-6.8 43.8-3.75L43.8-3.75Q43.25-1.4 42.52-0.58 41.8 0.25 40.25 0.25L40.25 0.25ZM66-26.6Q63.9-26.6 62.85-27.58 61.8-28.55 61.8-30.3L61.8-30.3Q61.8-32.05 63.17-33.23 64.55-34.4 66.6-34.4L66.6-34.4Q68.45-34.4 69.6-33.5 70.75-32.6 70.75-30.95L70.75-30.95Q70.75-28.95 69.45-27.78 68.15-26.6 66-26.6L66-26.6ZM65.6 0.25Q62.35 0.25 60.87-2.05 59.4-4.35 59.4-8.15L59.4-8.15Q59.4-10.4 59.97-13.93 60.55-17.45 61.45-20.5L61.45-20.5Q61.9-22.1 62.65-22.7 63.4-23.3 65.05-23.3L65.05-23.3Q67.6-23.3 67.6-21.6L67.6-21.6Q67.6-20.35 66.65-15.8L66.65-15.8Q65.45-10.3 65.45-8.35L65.45-8.35Q65.45-6.85 65.85-6.05 66.25-5.25 67.2-5.25L67.2-5.25Q68.1-5.25 69.45-6.5 70.8-7.75 73.05-10.45L73.05-10.45Q73.65-11.15 74.4-11.15L74.4-11.15Q75.05-11.15 75.42-10.55 75.8-9.95 75.8-8.9L75.8-8.9Q75.8-6.9 74.85-5.8L74.85-5.8Q69.9 0.25 65.6 0.25L65.6 0.25ZM81.29 0.25Q76.39 0.25 73.67-2.53 70.94-5.3 70.94-9.85L70.94-9.85Q70.94-13.9 72.54-16.95 74.14-20 76.69-21.65 79.24-23.3 82.04-23.3L82.04-23.3Q84.79-23.3 86.32-21.68 87.84-20.05 87.84-17.5L87.84-17.5Q87.84-15.4 86.92-13.95 85.99-12.5 84.49-12.5L84.49-12.5Q83.54-12.5 82.97-12.95 82.39-13.4 82.39-14.2L82.39-14.2Q82.39-14.55 82.49-15 82.59-15.45 82.64-15.65L82.64-15.65Q82.89-16.4 82.89-17.05L82.89-17.05Q82.89-17.7 82.57-18.05 82.24-18.4 81.64-18.4L81.64-18.4Q80.49-18.4 79.49-17.38 78.49-16.35 77.89-14.6 77.29-12.85 77.29-10.75L77.29-10.75Q77.29-4.95 82.34-4.95L82.34-4.95Q84.39-4.95 86.77-6.33 89.14-7.7 91.44-10.45L91.44-10.45Q92.04-11.15 92.79-11.15L92.79-11.15Q93.44-11.15 93.82-10.55 94.19-9.95 94.19-8.9L94.19-8.9Q94.19-7 93.24-5.8L93.24-5.8Q90.89-2.9 87.62-1.33 84.34 0.25 81.29 0.25L81.29 0.25Z" opacity="1" transform="matrix(1,0,0,1,0,0)" fill="#ffffff" class="wordmark-text-0" data-fill-palette-color="primary" id="text-0"></path></svg></g></svg></g></svg></g></svg></g><g></g></svg></g></svg></g></svg></g></svg></g><defs></defs></svg><rect width="320" height="360" fill="none" stroke="none" visibility="hidden"></rect></g></svg></g></svg>